<?xml version="1.0" encoding="UTF-8" standalone="no"?>
<!-- Created with Inkscape (http://www.inkscape.org/) -->

<svg
   xmlns:dc="http://purl.org/dc/elements/1.1/"
   xmlns:cc="http://creativecommons.org/ns#"
   xmlns:rdf="http://www.w3.org/1999/02/22-rdf-syntax-ns#"
   xmlns:svg="http://www.w3.org/2000/svg"
   xmlns="http://www.w3.org/2000/svg"
   xmlns:sodipodi="http://sodipodi.sourceforge.net/DTD/sodipodi-0.dtd"
   xmlns:inkscape="http://www.inkscape.org/namespaces/inkscape"
   width="99.987305mm"
   height="22.608595mm"
   viewBox="0 0 354.28572 80.109194"
   id="svg2"
   version="1.1"
   inkscape:version="0.91 r13725"
   sodipodi:docname="drawing-2.svg"
   inkscape:export-filename="/Users/xguo/d.png"
   inkscape:export-xdpi="300"
   inkscape:export-ydpi="300">
  <defs
     id="defs4" />
  <sodipodi:namedview
     id="base"
     pagecolor="#ffffff"
     bordercolor="#666666"
     borderopacity="1.0"
     inkscape:pageopacity="0.0"
     inkscape:pageshadow="2"
     inkscape:zoom="0.7"
     inkscape:cx="226.35527"
     inkscape:cy="-30.91723"
     inkscape:document-units="px"
     inkscape:current-layer="layer1"
     showgrid="false"
     fit-margin-top="0"
     fit-margin-left="0"
     fit-margin-right="0"
     fit-margin-bottom="0"
     inkscape:window-width="1280"
     inkscape:window-height="755"
     inkscape:window-x="0"
     inkscape:window-y="1"
     inkscape:window-maximized="1" />
  <metadata
     id="metadata7">
    <rdf:RDF>
      <cc:Work
         rdf:about="">
        <dc:format>image/svg+xml</dc:format>
        <dc:type
           rdf:resource="http://purl.org/dc/dcmitype/StillImage" />
        <dc:title></dc:title>
      </cc:Work>
    </rdf:RDF>
  </metadata>
  <g
     inkscape:label="Layer 1"
     inkscape:groupmode="layer"
     id="layer1"
     transform="translate(-75.504767,-421.33578)">
    <rect
       style="opacity:1;fill:#cccccc;fill-opacity:1;stroke:#ccff00;stroke-width:7.89808941;stroke-linecap:round;stroke-linejoin:round;stroke-miterlimit:4;stroke-dasharray:none;stroke-opacity:1"
       id="rect4186"
       width="346.38763"
       height="72.211105"
       x="79.453812"
       y="425.28482" />
    <text
       xml:space="preserve"
       style="font-style:normal;font-variant:normal;font-weight:normal;font-stretch:normal;font-size:40px;line-height:125%;font-family:'萌萌哒情根深种-中文';-inkscape-font-specification:'萌萌哒情根深种-中文';letter-spacing:0px;word-spacing:0px;fill:#000000;fill-opacity:1;stroke:none;stroke-width:1px;stroke-linecap:butt;stroke-linejoin:miter;stroke-opacity:1"
       x="102.85714"
       y="483.79077"
       id="text4136"
       sodipodi:linespacing="125%"><tspan
         sodipodi:role="line"
         id="tspan4138"
         x="102.85714"
         y="483.79077" /></text>
    <path
       inkscape:connector-curvature="0"
       id="path4147"
       style="font-style:normal;font-variant:normal;font-weight:normal;font-stretch:normal;font-size:medium;line-height:125%;font-family:'萌萌哒情根深种-中文';-inkscape-font-specification:'萌萌哒情根深种-中文';letter-spacing:0px;word-spacing:0px;fill:#ff0000;fill-opacity:1;stroke:#ff0000;stroke-width:0.78980893px;stroke-linecap:butt;stroke-linejoin:miter;stroke-opacity:1"
       d="m 100.33286,469.79505 -0.803098,-0.39008 q -0.573638,-0.96371 -0.619534,-2.11101 -0.04589,-1.14728 -0.206511,-2.29456 l 0,-2.4093 0.09178,-1.44558 -0.160615,-1.62915 0,-3.37302 q 0.160615,-2.34045 0.435966,-4.72681 0.298295,-2.38636 0.84899,-4.58914 0.321242,-0.25241 0.688372,-0.36714 0.36713,-0.13767 0.75721,-0.0459 l 0.82605,0.41302 q 0.32123,0.39008 0.34418,0.94077 0.0459,0.5507 0.0459,1.1014 -0.32124,1.95038 -0.52775,3.92371 -0.18357,1.97333 -0.27536,4.06139 l 7.54914,0 q 1.53736,-0.16062 2.63876,-0.20651 1.1014,-0.0689 3.32713,-0.50481 l 0,-0.2524 q -0.0918,-2.34046 -0.61954,-4.5203 -0.5048,-2.17984 -0.7572,-4.47441 0.0918,-0.32125 0.20651,-0.59659 0.11472,-0.2983 0.27534,-0.52775 0.32125,-0.25241 0.68837,-0.36714 0.36714,-0.11472 0.75721,-0.0459 l 0.82605,0.41302 q 1.3538,5.20867 1.78977,10.53208 0.45891,5.3234 1.58325,10.48619 l -0.48186,0.87193 q -0.32125,0.2524 -0.68837,0.39008 -0.36714,0.13767 -0.75721,0.0689 l -0.8031,-0.45891 q -0.73426,-1.92744 -1.00961,-4.06139 -0.27535,-2.13395 -0.68838,-4.24496 -2.77643,0.27535 -3.85487,0.43597 -1.07845,0.13768 -2.43225,0.20652 l -7.45735,0 0,0.89487 0.0689,1.60621 -0.0689,2.27162 0.32124,3.83193 -0.41303,0.8031 q -0.32123,0.22946 -0.68837,0.36714 -0.36713,0.11473 -0.7572,0.0229 z" />
    <path
       inkscape:connector-curvature="0"
       id="path4149"
       style="font-style:normal;font-variant:normal;font-weight:normal;font-stretch:normal;font-size:medium;line-height:125%;font-family:'萌萌哒情根深种-中文';-inkscape-font-specification:'萌萌哒情根深种-中文';letter-spacing:0px;word-spacing:0px;fill:#808000;fill-opacity:1;stroke:#808000;stroke-width:0.78980893px;stroke-linecap:butt;stroke-linejoin:miter;stroke-opacity:1"
       d="m 134.72704,472.38792 q -2.40929,-0.48187 -4.54325,-1.56031 -2.111,-1.1014 -3.9696,-2.84527 -0.8031,-0.96372 -1.44558,-1.99627 -0.64248,-1.05551 -0.57364,-2.43225 0.16062,-1.69798 1.0555,-3.05178 0.89488,-1.37674 2.17984,-2.59287 1.05551,-0.89488 2.22573,-1.58325 1.17023,-0.68837 2.66171,-0.50481 2.08805,0.0689 3.80899,1.03256 1.74387,0.96373 3.28123,2.43225 1.21612,1.60619 1.8586,3.4648 0.64248,1.8586 0.57364,3.94666 -0.0918,0.89488 -0.41302,1.72093 -0.32124,0.82604 -0.73426,1.53736 l -0.87193,0.89488 q -1.1473,0.73427 -2.40931,1.17023 -1.23907,0.43598 -2.68465,0.36714 z m 2.98295,-3.94666 q 0.73426,-0.68838 0.89488,-1.53737 0.16062,-0.84899 0.0689,-1.81271 -0.32124,-1.21612 -0.80309,-2.34046 -0.48186,-1.12434 -1.51442,-2.01922 -0.98667,-0.73426 -2.08806,-1.23907 -1.07845,-0.52775 -2.27162,-0.61953 -0.64249,0.0918 -1.23907,0.52775 -0.57365,0.43596 -1.14729,0.68837 -0.8031,0.89488 -1.49147,1.81271 -0.68837,0.91783 -0.75721,2.13395 0.16062,0.57364 0.5507,1.00961 0.41302,0.43597 0.73426,0.91783 1.6062,1.3079 3.44186,2.24867 1.83565,0.94078 3.92372,1.03256 l 1.69798,-0.80309 z" />
    <path
       inkscape:connector-curvature="0"
       id="path4151"
       style="font-style:normal;font-variant:normal;font-weight:normal;font-stretch:normal;font-size:medium;line-height:125%;font-family:'萌萌哒情根深种-中文';-inkscape-font-specification:'萌萌哒情根深种-中文';letter-spacing:0px;word-spacing:0px;fill:#00ff00;fill-opacity:1;stroke:#00ff00;stroke-width:0.78980893px;stroke-linecap:butt;stroke-linejoin:miter;stroke-opacity:1"
       d="m 148.72895,472.06668 -0.8031,-0.41303 q -0.89489,-2.93705 -1.30791,-6.08061 -0.39008,-3.14356 -0.71132,-6.21829 0.0689,-0.48185 0.13768,-0.96372 0.0918,-0.48186 0.43597,-0.89488 0.32124,-0.22946 0.66542,-0.34418 0.36714,-0.13768 0.78016,-0.0459 l 0.8031,0.39007 q 0.32124,0.32125 0.36713,0.82604 0.0459,0.48187 0.0459,0.96373 l -0.0918,0.8031 0.2524,1.21612 0.16062,0 q 0.64248,-0.82605 1.3079,-1.58325 0.68838,-0.75721 1.62915,-1.23907 l 2.24868,-0.18357 q 0.57365,0.18357 1.00961,0.5507 0.45891,0.34418 0.84899,0.75721 l 0.48187,0.64248 0.25239,0 q 0.32124,-0.41303 0.71132,-0.68838 0.41303,-0.27534 0.82605,-0.52775 0.8031,-0.16061 1.56031,-0.27534 0.78015,-0.11473 1.65209,-0.0459 0.96372,0.16062 1.76681,0.8031 0.82605,0.64248 1.53737,1.37674 0.57364,0.64249 0.8031,1.33085 0.25241,0.68838 0.41302,1.49148 l 0,2.59286 q -0.22945,0.96372 -0.52775,1.90449 -0.27535,0.91783 -0.7572,1.74388 -0.32124,0.2524 -0.68838,0.41302 -0.36713,0.16062 -0.84899,0.0918 l -0.8031,-0.41302 q -0.2524,-0.32124 -0.36713,-0.68837 -0.11473,-0.39007 -0.0459,-0.89488 0.48186,-1.03256 0.7572,-2.1569 0.2983,-1.14728 0.13768,-2.43225 -0.0689,-0.32124 -0.27535,-0.68836 -0.20651,-0.36714 -0.52775,-0.59659 -0.41302,-0.48186 -0.98667,-0.64248 -0.55069,-0.16062 -1.19317,-0.0918 l -0.64248,0.32124 q -0.73427,1.78976 -1.00961,3.80898 -0.27535,1.99628 -0.849,3.90077 -0.32124,0.2524 -0.68836,0.36713 -0.36714,0.11473 -0.75722,0.0459 l -0.80309,-0.41302 q -0.25241,-0.32124 -0.39008,-0.73427 -0.11473,-0.43597 -0.11473,-0.84899 l 0.0918,-0.0689 0,-3.62543 q -0.0918,-0.89488 -0.34419,-1.65209 -0.22946,-0.78015 -0.87194,-1.42263 l -0.5507,-0.0689 -0.32124,0.48186 -1.3079,1.51441 q -0.36713,1.05551 -0.68837,2.1569 -0.32124,1.07845 -0.48186,2.20279 l 0,2.95999 -0.48186,0.87194 q -0.32124,0.2524 -0.68837,0.36713 -0.34419,0.11473 -0.75721,0.0459 z" />
    <path
       inkscape:connector-curvature="0"
       id="path4153"
       style="font-style:normal;font-variant:normal;font-weight:normal;font-stretch:normal;font-size:medium;line-height:125%;font-family:'萌萌哒情根深种-中文';-inkscape-font-specification:'萌萌哒情根深种-中文';letter-spacing:0px;word-spacing:0px;fill:#0000ff;fill-opacity:1;stroke:#0000ff;stroke-width:0.78980893px;stroke-linecap:butt;stroke-linejoin:miter;stroke-opacity:1"
       d="m 181.03148,477.13768 q -1.92743,-0.16063 -3.76309,-0.68838 -1.83566,-0.5048 -3.28124,-1.97333 -1.62915,-2.08805 -2.47814,-4.56619 -0.84899,-2.47814 -0.91783,-5.23162 0.16063,-1.37674 0.68838,-2.52403 0.52775,-1.17023 1.39968,-2.22573 l 0.16063,0 0.41302,-0.64248 q 0.96372,-1.0555 2.20278,-1.44558 1.26202,-0.41302 2.75349,-0.34419 0.89489,0.0918 1.6062,0.45892 0.73426,0.34418 1.46853,0.84899 l 0.64247,0.55069 q 0.96372,1.21612 1.49147,2.63876 0.52776,1.39969 0.27535,3.09767 l -0.87193,1.76682 -0.18357,0 0,0.16062 q -0.8031,0.64248 -1.74387,0.96372 -0.91783,0.32124 -1.95039,0.32124 -1.37674,-0.22946 -2.6617,-0.82605 -1.26201,-0.61953 -2.45519,-1.42263 l 0,0.32124 q 0.39008,1.69798 0.98667,3.30419 0.61953,1.58325 1.74387,2.95999 1.26201,0.96372 2.82232,1.14728 1.58326,0.20651 3.18945,0.20651 0.41303,-0.16061 0.84899,-0.48185 0.43598,-0.32124 0.68838,-0.71132 0.32123,-0.25241 0.66543,-0.36714 0.36712,-0.13767 0.78015,-0.0459 l 0.8031,0.41302 q 0.2524,0.32124 0.36712,0.66542 0.11474,0.36714 0.0459,0.849 l -0.48186,0.89488 -0.57364,0.64247 q -0.96372,0.73427 -2.13395,1.07846 -1.17023,0.36713 -2.54698,0.20651 z m -0.96372,-12.20712 0.32124,-0.16062 q 0.16062,-0.32124 0.16062,-0.71132 0,-0.41302 0,-0.82604 l -1.0555,-1.8586 q -0.48186,-0.32124 -1.0555,-0.5507 -0.5507,-0.25241 -1.28496,-0.18357 -0.34419,0 -0.68837,0.18357 -0.32124,0.16062 -0.64248,0.32124 l 0,0.16062 -0.64248,0.71131 -0.22946,0.16063 0,0.2524 0.39008,0.8031 q 0.98666,0.64248 2.04217,1.26201 1.07844,0.59659 2.3634,0.59659 l 0.32124,-0.16062 z" />
    <path
       inkscape:connector-curvature="0"
       id="path4155"
       style="font-style:normal;font-variant:normal;font-weight:normal;font-stretch:normal;font-size:medium;line-height:125%;font-family:'萌萌哒情根深种-中文';-inkscape-font-specification:'萌萌哒情根深种-中文';letter-spacing:0px;word-spacing:0px;fill:#ff00ff;fill-opacity:1;stroke:#ff00ff;stroke-width:0.78980893px;stroke-linecap:butt;stroke-linejoin:miter;stroke-opacity:1"
       d="m 196.23123,472.70916 q -1.12434,0 -2.08807,-0.32124 -0.96372,-0.32124 -1.76682,-1.12434 -0.73426,-1.0555 -1.14728,-2.24868 -0.39008,-1.19318 -0.32124,-2.54698 0.16061,-1.8586 0.48186,-3.7172 0.34418,-1.85861 1.62914,-3.30419 0.39008,-0.41302 0.96373,-0.43596 0.57363,-0.0459 1.12434,-0.0459 l 1.21611,0.55069 q 0.32125,0.41303 0.52776,0.89489 0.22946,0.48185 0.11473,1.0555 l -0.39008,0.8031 q -0.34418,0.22946 -0.71132,0.36713 -0.34418,0.11473 -0.7572,0.023 l -0.48187,-0.0689 q -0.22945,1.21612 -0.39008,2.50108 -0.16061,1.28496 -0.16061,2.6617 l 0.64248,1.44558 q 0.39008,0.2524 0.91783,0.2524 0.52775,0 1.10138,0 0.98667,-0.57364 1.99629,-1.10139 1.00961,-0.52775 1.83565,-1.39969 0.48186,-0.57364 0.71131,-1.28495 0.25241,-0.73427 0.57365,-1.37675 l 0.39008,-0.16062 0,-0.16062 q 0.32124,-0.2524 0.68837,-0.36713 0.36713,-0.13768 0.78015,-0.0459 l 0.8031,0.41303 q 0.22946,0.32124 0.34419,0.73426 0.13768,0.39008 0.0459,0.87194 l -0.16062,0.48185 0.16062,0 1.0555,1.76683 q 0.48187,0.16062 0.91783,0.48186 0.45891,0.32123 1.10139,0.2524 0.32125,-0.0918 0.59659,-0.27535 0.2983,-0.20651 0.52775,-0.52775 0.25241,-0.32124 0.25241,-0.7572 0,-0.45892 0,-0.849 l -0.16062,-1.3079 -0.16062,0 q -0.25241,-0.32124 -0.36713,-0.66543 -0.11473,-0.36713 -0.0459,-0.78015 l 0.41302,-0.8031 q 0.32124,-0.25241 0.66542,-0.36714 0.36714,-0.11472 0.84899,-0.0459 l 0.82605,0.41302 0.22946,0.22945 q 0.64248,0.98667 0.75721,2.24868 0.13767,1.23907 0.13767,2.52403 -0.16062,0.5507 -0.36713,1.17023 -0.20651,0.59659 -0.59659,1.07845 l -0.73426,0.78016 q -0.73426,0.55069 -1.62915,0.87193 -0.87193,0.32124 -1.92744,0.25241 -1.03256,-0.0918 -1.92743,-0.64249 -0.89489,-0.57364 -1.69799,-1.17023 l -0.8031,-0.96371 -0.89488,1.03255 q -1.35379,0.94078 -2.68465,1.78976 -1.33085,0.84899 -3.00588,0.91783 z" />
    <path
       inkscape:connector-curvature="0"
       id="path4157"
       style="font-style:normal;font-variant:normal;font-weight:normal;font-stretch:normal;font-size:medium;line-height:125%;font-family:'萌萌哒情根深种-中文';-inkscape-font-specification:'萌萌哒情根深种-中文';letter-spacing:0px;word-spacing:0px;fill:#ff6600;fill-opacity:1;stroke:#ff6600;stroke-width:0.78980893px;stroke-linecap:butt;stroke-linejoin:miter;stroke-opacity:1"
       d="m 227.09248,472.38792 q -2.4093,-0.48187 -4.54325,-1.56031 -2.111,-1.1014 -3.9696,-2.84527 -0.8031,-0.96372 -1.44558,-1.99627 -0.64248,-1.05551 -0.57365,-2.43225 0.16063,-1.69798 1.05551,-3.05178 0.89488,-1.37674 2.17984,-2.59287 1.0555,-0.89488 2.22573,-1.58325 1.17024,-0.68837 2.6617,-0.50481 2.08806,0.0689 3.80899,1.03256 1.74388,0.96373 3.28124,2.43225 1.21612,1.60619 1.8586,3.4648 0.64248,1.8586 0.57364,3.94666 -0.0918,0.89488 -0.41302,1.72093 -0.32124,0.82604 -0.73426,1.53736 l -0.87194,0.89488 q -1.14728,0.73427 -2.40929,1.17023 -1.23907,0.43598 -2.68466,0.36714 z m 2.98294,-3.94666 q 0.73427,-0.68838 0.89489,-1.53737 0.16062,-0.84899 0.0689,-1.81271 -0.32124,-1.21612 -0.8031,-2.34046 -0.48186,-1.12434 -1.51442,-2.01922 -0.98666,-0.73426 -2.08806,-1.23907 -1.07844,-0.52775 -2.27162,-0.61953 -0.64248,0.0918 -1.23907,0.52775 -0.57365,0.43596 -1.14729,0.68837 -0.8031,0.89488 -1.49147,1.81271 -0.68837,0.91783 -0.75721,2.13395 0.16063,0.57364 0.5507,1.00961 0.41302,0.43597 0.73427,0.91783 1.60619,1.3079 3.44185,2.24867 1.83566,0.94078 3.92372,1.03256 l 1.69797,-0.80309 z" />
    <path
       inkscape:connector-curvature="0"
       id="path4159"
       style="font-style:normal;font-variant:normal;font-weight:normal;font-stretch:normal;font-size:medium;line-height:125%;font-family:'萌萌哒情根深种-中文';-inkscape-font-specification:'萌萌哒情根深种-中文';letter-spacing:0px;word-spacing:0px;fill:#ffcc00;fill-opacity:1;stroke:#ffcc00;stroke-width:0.78980893px;stroke-linecap:butt;stroke-linejoin:miter;stroke-opacity:1"
       d="m 243.34305,471.97489 -0.8031,-0.39007 q -1.69798,-3.44186 -2.54697,-7.06728 -0.82604,-3.62543 -1.72093,-7.25085 l 0.57365,-0.96371 q 0.32124,-0.25241 0.66542,-0.36714 0.36713,-0.11473 0.78016,-0.0459 l 0.80309,0.41303 q 0.41302,1.44558 0.75721,2.89115 0.36713,1.44558 0.68837,2.91411 l 0.25241,0 0.96371,-1.69798 0.48187,-0.48186 q 1.58325,-1.37674 3.39596,-2.01923 1.81271,-0.64248 3.99256,-0.57364 0.64248,0.32124 1.35379,0.48187 0.73426,0.16061 1.3079,0.66542 l 0.48187,0.48186 q 0.32123,0.48185 0.59659,0.91783 0.29829,0.43597 0.20651,1.10139 l -0.41303,0.8031 q -0.32124,0.22945 -0.68837,0.36713 -0.34418,0.11473 -0.82605,0.0229 l -0.82604,-0.39008 q -0.16062,-0.32124 -0.41302,-0.59659 -0.22946,-0.2983 -0.5507,-0.45891 l -1.8586,-0.25241 q -1.03256,0.16062 -1.92744,0.66543 -0.89489,0.48186 -1.69798,1.19317 l -0.0689,0.16063 -0.16062,0 q -0.64248,0.89488 -0.94078,1.95038 -0.27534,1.03256 -0.20651,2.24868 l 0.50481,3.23534 q -0.16062,0.43597 -0.2983,0.89489 -0.11473,0.43597 -0.36712,0.75721 -0.32124,0.22945 -0.71132,0.36713 -0.36714,0.11473 -0.78016,0.023 z" />
    <path
       inkscape:connector-curvature="0"
       id="path4161"
       style="font-style:normal;font-variant:normal;font-weight:normal;font-stretch:normal;font-size:medium;line-height:125%;font-family:'萌萌哒情根深种-中文';-inkscape-font-specification:'萌萌哒情根深种-中文';letter-spacing:0px;word-spacing:0px;fill:#008000;fill-opacity:1;stroke:#008000;stroke-width:0.78980893px;stroke-linecap:butt;stroke-linejoin:miter;stroke-opacity:1"
       d="m 263.11401,471.97489 -0.8031,-0.39007 q -1.21612,-4.15318 -1.49147,-8.51286 -0.27535,-4.35969 -1.10139,-8.55875 l 0,-3.14356 -0.0689,-0.5507 q 0.0689,-0.89488 0.11473,-1.88155 0.0459,-0.98666 0.52775,-1.72092 0.32124,-0.22947 0.68837,-0.34419 0.36713,-0.13768 0.75721,-0.0459 l 0.8031,0.39008 q 0.34418,0.41302 0.36713,0.98666 0.0459,0.5507 0.0459,1.10139 l -0.16062,1.99628 0.0918,0.0689 0,3.14356 q 0.22946,1.53736 0.5507,3.07472 0.32124,1.53737 0.32124,3.14357 l 0.16062,0 0.32124,-0.48186 1.3079,-1.21613 q 1.97333,-1.21611 3.80899,-2.54697 1.8586,-1.33085 4.13023,-1.72093 l 0.8031,0.39008 q 0.2524,0.32124 0.36713,0.68837 0.11473,0.36713 0.0459,0.78016 l -0.41302,0.8031 q -1.44558,0.64248 -2.77643,1.53736 -1.33085,0.87193 -2.70759,1.67504 l -0.0918,0.34418 q 1.21613,1.83566 2.50108,3.69426 1.30791,1.8586 1.85861,3.94666 l -0.39008,0.82604 q -0.32124,0.22947 -0.68837,0.36714 -0.36713,0.11473 -0.78016,0.0229 l -0.8031,-0.39008 q -1.03255,-1.62913 -2.01922,-3.28123 -0.96372,-1.65209 -2.13395,-3.18945 l -0.22945,0 q -0.16063,0.48186 -0.50481,0.89488 -0.32124,0.41302 -0.55069,0.89488 l -0.80311,0.32124 0,0.48186 q 0.32124,1.28496 0.48186,2.59287 0.16062,1.28495 0.32125,2.61581 l -0.41303,0.8031 q -0.32124,0.22945 -0.68837,0.36713 -0.34418,0.11473 -0.75721,0.023 z" />
    <path
       inkscape:connector-curvature="0"
       id="path4163"
       style="font-style:normal;font-variant:normal;font-weight:normal;font-stretch:normal;font-size:medium;line-height:125%;font-family:'萌萌哒情根深种-中文';-inkscape-font-specification:'萌萌哒情根深种-中文';letter-spacing:0px;word-spacing:0px;fill:#c83737;fill-opacity:1;stroke:#c83737;stroke-width:0.78980893px;stroke-linecap:butt;stroke-linejoin:miter;stroke-opacity:1"
       d="m 311.39644,468.28063 q -1.21612,-0.45891 -2.34046,-1.12434 -1.12434,-0.68837 -2.08806,-1.67503 -3.18946,-3.62542 -4.97922,-7.98511 -1.76682,-4.35968 -2.56992,-8.94882 0.16062,-0.57365 0.27535,-1.14729 0.11473,-0.57364 0.52775,-0.98666 0.32124,-0.32124 0.8031,-0.36714 0.48186,-0.0459 0.96372,-0.0459 l 0.82605,0.41303 q 0.22945,0.32123 0.34418,0.71131 0.13767,0.36713 0.0459,0.78015 l -0.39008,0.8031 -0.25241,0.16063 0,0.41302 q 1.05551,3.69426 2.56992,7.36557 1.51442,3.67132 4.17612,6.74604 0.5507,0.48186 1.14729,0.89488 0.61953,0.39008 1.26201,0.64248 1.6062,-1.0555 2.68465,-2.54697 1.10139,-1.49148 1.9045,-3.02884 0.73426,-2.01922 1.26201,-4.15317 0.52775,-2.13395 1.17023,-4.22201 0.32124,-0.2524 0.68837,-0.36713 0.36713,-0.13768 0.84899,-0.0459 l 0.8031,0.41303 q 0.32124,0.32124 0.39008,0.75721 0.0918,0.43597 0,0.91782 -0.71132,3.39597 -1.76682,6.58542 -1.05551,3.18945 -3.39596,5.92 l -1.83566,1.78976 q -0.73426,0.48186 -1.46853,0.87194 -0.71131,0.36713 -1.6062,0.45891 z" />
    <path
       inkscape:connector-curvature="0"
       id="path4165"
       style="font-style:normal;font-variant:normal;font-weight:normal;font-stretch:normal;font-size:medium;line-height:125%;font-family:'萌萌哒情根深种-中文';-inkscape-font-specification:'萌萌哒情根深种-中文';letter-spacing:0px;word-spacing:0px;fill:#000000;fill-opacity:1;stroke:#000000;stroke-width:0.78980893px;stroke-linecap:butt;stroke-linejoin:miter;stroke-opacity:1"
       d="m 328.21709,470.96528 -0.8031,-0.39008 q -0.2524,-0.2524 -0.34419,-0.59658 -0.0689,-0.36713 -0.13767,-0.68837 0.5507,-2.01923 0.75721,-4.19907 0.20651,-2.17984 0.91783,-4.10728 0.34418,-0.2524 0.68837,-0.36713 0.36713,-0.13768 0.78015,-0.0459 l 0.8031,0.41302 q 0.22946,0.32124 0.34418,0.68838 0.13768,0.34418 0.0689,0.7572 -0.41303,2.01923 -0.61954,4.10729 -0.20651,2.08805 -0.91783,3.94666 -0.32124,0.2524 -0.68837,0.41302 -0.36713,0.16062 -0.84899,0.0689 z m 0.73426,-11.61053 q -0.66542,-0.0688 -1.26201,-0.34418 -0.59659,-0.2983 -1.07845,-0.78015 -0.48186,-0.64249 -0.78015,-1.35381 -0.27536,-0.73426 -0.27536,-1.62913 0.16063,-0.80311 0.48187,-1.6521 0.32124,-0.84899 0.89488,-1.49147 0.5507,-0.52775 1.19317,-0.75721 0.66543,-0.2524 1.46854,-0.18356 0.64247,0.2524 1.35379,0.2524 0.73426,0 1.21612,0.59659 l 0.48186,0.48186 q 0.52775,0.82604 0.73426,1.72093 0.20651,0.87193 0.20651,1.92743 -0.0918,0.48186 -0.2524,0.91783 -0.16062,0.43597 -0.52775,0.84899 l -0.39008,0.39008 q -0.8031,0.41302 -1.65209,0.73426 -0.84899,0.32124 -1.81271,0.32124 z" />
    <path
       inkscape:connector-curvature="0"
       id="path4167"
       style="font-style:normal;font-variant:normal;font-weight:normal;font-stretch:normal;font-size:medium;line-height:125%;font-family:'萌萌哒情根深种-中文';-inkscape-font-specification:'萌萌哒情根深种-中文';letter-spacing:0px;word-spacing:0px;fill:#ff6600;fill-opacity:1;stroke:#ff6600;stroke-width:0.78980893px;stroke-linecap:butt;stroke-linejoin:miter;stroke-opacity:1"
       d="m 346.65037,472.38792 q -1.85861,0 -3.48775,-0.52775 -1.62914,-0.52775 -3.00589,-1.65209 -1.37674,-1.23907 -1.95038,-2.82233 -0.5507,-1.58325 -0.39007,-3.41891 0.16061,-1.46852 0.7113,-2.70759 0.57365,-1.26201 1.37675,-2.45519 1.3079,-1.37674 3.05178,-1.76682 1.76682,-0.41303 3.69426,-0.34419 0.96372,0 1.81271,0.16062 0.84899,0.16062 1.74388,0.41302 0.32123,-2.01921 0.55069,-4.06138 0.2524,-2.06512 0.8031,-4.0614 0.32124,-0.22945 0.68837,-0.34418 0.36713,-0.13767 0.78015,-0.0459 l 0.80311,0.39007 q 0.39007,0.45892 0.39007,1.07845 0,0.59659 0,1.14729 -0.5507,3.87783 -1.00961,7.82448 -0.43596,3.94666 -0.84899,7.91628 0.2524,-0.0918 0.45891,0.0689 0.20651,0.16062 0.36714,0.2524 0.22945,0.32124 0.34418,0.73427 0.13767,0.39007 0.0459,0.87193 l -0.39007,0.8031 -0.16063,0 0,0.20651 -0.48186,0.25241 0,0.16061 q -1.21611,1.03256 -2.70759,1.49148 -1.49147,0.43597 -3.18945,0.43597 z m 2.50108,-3.57954 0.0689,-0.0918 -0.16062,-0.89488 q 0.2524,-1.6062 0.41303,-3.30418 0.16061,-1.69798 0.41302,-3.30419 l -0.34419,-0.73426 q -0.87194,-0.48185 -1.97333,-0.55069 -1.07845,-0.0918 -2.20279,-0.0918 -0.94077,-0.0689 -1.72093,0.25241 -0.7572,0.32124 -1.39969,0.89488 -0.64248,1.03255 -1.0555,2.17984 -0.39008,1.12434 -0.22946,2.47813 0.0918,0.73427 0.52775,1.30791 0.43597,0.5507 0.91783,1.03256 1.0555,0.82604 2.36341,1.03256 1.30791,0.18356 2.77643,0.18356 l 1.6062,-0.39008 z" />
    <path
       inkscape:connector-curvature="0"
       id="path4169"
       style="font-style:normal;font-variant:normal;font-weight:normal;font-stretch:normal;font-size:medium;line-height:125%;font-family:'萌萌哒情根深种-中文';-inkscape-font-specification:'萌萌哒情根深种-中文';letter-spacing:0px;word-spacing:0px;fill:#ffd42a;fill-opacity:1;stroke:#ffd42a;stroke-width:0.78980893px;stroke-linecap:butt;stroke-linejoin:miter;stroke-opacity:1"
       d="m 368.66641,477.13768 q -1.92743,-0.16063 -3.76309,-0.68838 -1.83566,-0.5048 -3.28124,-1.97333 -1.62915,-2.08805 -2.47814,-4.56619 -0.84899,-2.47814 -0.91783,-5.23162 0.16063,-1.37674 0.68838,-2.52403 0.52775,-1.17023 1.39968,-2.22573 l 0.16063,0 0.41302,-0.64248 q 0.96371,-1.0555 2.20278,-1.44558 1.26201,-0.41302 2.75349,-0.34419 0.89489,0.0918 1.6062,0.45892 0.73426,0.34418 1.46853,0.84899 l 0.64247,0.55069 q 0.96372,1.21612 1.49147,2.63876 0.52776,1.39969 0.27535,3.09767 l -0.87193,1.76682 -0.18357,0 0,0.16062 q -0.8031,0.64248 -1.74387,0.96372 -0.91783,0.32124 -1.95039,0.32124 -1.37674,-0.22946 -2.6617,-0.82605 -1.26201,-0.61953 -2.45519,-1.42263 l 0,0.32124 q 0.39007,1.69798 0.98666,3.30419 0.61954,1.58325 1.74388,2.95999 1.26201,0.96372 2.82232,1.14728 1.58326,0.20651 3.18945,0.20651 0.41302,-0.16061 0.84899,-0.48185 0.43598,-0.32124 0.68838,-0.71132 0.32123,-0.25241 0.66543,-0.36714 0.36712,-0.13767 0.78014,-0.0459 l 0.80311,0.41302 q 0.2524,0.32124 0.36713,0.66542 0.11473,0.36714 0.0459,0.849 l -0.48186,0.89488 -0.57364,0.64247 q -0.96373,0.73427 -2.13396,1.07846 -1.17022,0.36713 -2.54697,0.20651 z m -0.96372,-12.20712 0.32124,-0.16062 q 0.16062,-0.32124 0.16062,-0.71132 0,-0.41302 0,-0.82604 l -1.0555,-1.8586 q -0.48186,-0.32124 -1.0555,-0.5507 -0.5507,-0.25241 -1.28496,-0.18357 -0.34419,0 -0.68837,0.18357 -0.32124,0.16062 -0.64248,0.32124 l 0,0.16062 -0.64248,0.71131 -0.22946,0.16063 0,0.2524 0.39008,0.8031 q 0.98666,0.64248 2.04216,1.26201 1.07845,0.59659 2.36341,0.59659 l 0.32124,-0.16062 z" />
    <path
       inkscape:connector-curvature="0"
       id="path4171"
       style="font-style:normal;font-variant:normal;font-weight:normal;font-stretch:normal;font-size:medium;line-height:125%;font-family:'萌萌哒情根深种-中文';-inkscape-font-specification:'萌萌哒情根深种-中文';letter-spacing:0px;word-spacing:0px;fill:#ccff00;fill-opacity:1;stroke:#ccff00;stroke-width:0.78980893px;stroke-linecap:butt;stroke-linejoin:miter;stroke-opacity:1"
       d="m 389.07483,472.38792 q -2.4093,-0.48187 -4.54325,-1.56031 -2.111,-1.1014 -3.96961,-2.84527 -0.8031,-0.96372 -1.44558,-1.99627 -0.64248,-1.05551 -0.57364,-2.43225 0.16061,-1.69798 1.0555,-3.05178 0.89488,-1.37674 2.17984,-2.59287 1.05551,-0.89488 2.22574,-1.58325 1.17023,-0.68837 2.6617,-0.50481 2.08806,0.0689 3.80899,1.03256 1.74387,0.96373 3.28123,2.43225 1.21612,1.60619 1.8586,3.4648 0.64249,1.8586 0.57365,3.94666 -0.0918,0.89488 -0.41303,1.72093 -0.32124,0.82604 -0.73426,1.53736 l -0.87194,0.89488 q -1.14728,0.73427 -2.4093,1.17023 -1.23906,0.43598 -2.68464,0.36714 z m 2.98294,-3.94666 q 0.73426,-0.68838 0.89488,-1.53737 0.16062,-0.84899 0.0689,-1.81271 -0.32124,-1.21612 -0.8031,-2.34046 -0.48186,-1.12434 -1.51442,-2.01922 -0.98667,-0.73426 -2.08805,-1.23907 -1.07846,-0.52775 -2.27163,-0.61953 -0.64248,0.0918 -1.23907,0.52775 -0.57364,0.43596 -1.14729,0.68837 -0.80309,0.89488 -1.49147,1.81271 -0.68837,0.91783 -0.7572,2.13395 0.16061,0.57364 0.55069,1.00961 0.41302,0.43597 0.73426,0.91783 1.60621,1.3079 3.44186,2.24867 1.83565,0.94078 3.92372,1.03256 l 1.69798,-0.80309 z" />
  </g>
</svg>
